<svg xmlns="http://www.w3.org/2000/svg" xmlns:xlink="http://www.w3.org/1999/xlink" height="110" style="" version="1.1" width="37" xml:space="preserve"><rect id="backgroundrect" width="100%" height="100%" x="0" y="0" fill="none" stroke="none" class="" style=""/><g class="currentLayer" style=""><title>Layer 1</title><path d="M38.29392829608918,58.87500006866455 c-9.837,0 -13.99,5.402 -13.99,10.253 c0,3.874 -0.272,19.254 -0.272,23.135 c0,12.74 -8.314,18.144 -20.09,18.144 h-2.911 v-7.62 h2.494 c8.178,0 11.366,-4.012 11.366,-11.49 c0,-3.187 0.13,-17.042 0.13,-20.786 c-0.14100000000000001,-8.866 6.513,-13.299 12.749,-14.957 v-0.2820000000000001 c-6.236,-1.522 -12.89,-6.232 -12.749,-15.098 c0,-3.739 -0.13,-16.759 -0.13,-20.081 c0,-7.76 -3.606,-12.473 -11.366,-12.473 h-2.494 V6.86645513781059e-8 h2.911 c11.499,0 20.09,4.986 20.09,18.979 c0,3.739 0.272,18.843 0.272,22.581 c0,4.293 4.1530000000000005,10.248 13.99,10.248 V58.87500006866455 z" style="fill:#2F3435;stroke:#2F3435;stroke-width:2.6805;stroke-miterlimit:10;" id="svg_1" class="" stroke-dasharray="none" filter="url(#f017)"/></g><defs><filter id="f017" xmlns:inkscape="http://www.inkscape.org/namespaces/inkscape" inkscape:label="Oil slick" x="0" y="0" width="1" height="1" inkscape:menu="Overlays" inkscape:menu-tooltip="Rainbow-colored semitransparent oily splotches" color-interpolation-filters="sRGB">
            <feTurbulence baseFrequency=".143" numOctaves="5" type="fractalNoise"/>
            <feColorMatrix values="1 0 0 0 0 0 1 0 0 0 0 0 1 0 0 0 0 0 5 -3"/>
            <feMorphology result="result3" radius="2.7" operator="dilate"/>
            <feTurbulence baseFrequency=".121" numOctaves="2" result="result91"/>
            <feDisplacementMap result="result4" scale="18.5" yChannelSelector="A" xChannelSelector="R" in="result3" in2="result91"/>
            <feComposite in2="SourceGraphic" operator="atop" in="result4"/>
        </filter></defs></svg>